<?xml version="1.0" standalone="no"?><!-- Generator: Gravit.io --><svg xmlns="http://www.w3.org/2000/svg" xmlns:xlink="http://www.w3.org/1999/xlink" style="isolation:isolate" viewBox="0 0 512 512" width="512" height="512"><defs><clipPath id="_clipPath_Rk6tcyAR9Zabxdk5vHOarH4fgZlQ5CUI"><rect width="512" height="512"/></clipPath></defs><g clip-path="url(#_clipPath_Rk6tcyAR9Zabxdk5vHOarH4fgZlQ5CUI)"><g><path d=" M 178.477 392.597 L 178.477 209.167 C 178.479 207.586 177.58 206.16 176.199 205.554 C 174.817 204.949 173.227 205.284 172.171 206.403 C 161.599 217.589 162.817 323.026 163.622 361.375 L 126.647 361.375 C 124.83 309.484 126.499 183.463 154.533 165.682 C 169.609 156.12 213.458 130.971 220.014 127.208 L 291.971 127.208 C 298.741 131.111 345.115 157.845 357.46 165.682 C 385.501 183.471 387.162 309.484 385.346 361.375 L 348.371 361.375 C 349.176 323.026 350.394 217.589 339.821 206.403 C 338.765 205.29 337.178 204.958 335.8 205.563 C 334.422 206.167 333.524 207.589 333.523 209.167 L 333.523 392.597 L 178.477 392.597 Z " fill="rgb(194,232,255)"/><path d=" M 291.033 131.111 C 300.085 136.325 343.697 161.498 355.562 169.023 C 378.834 183.783 383.936 289.314 381.787 357.472 L 352.144 357.472 C 353.259 301.491 353.163 214.997 342.428 203.648 C 340.323 201.413 337.149 200.744 334.395 201.954 C 331.633 203.164 329.832 206.013 329.832 209.167 L 329.832 388.694 L 182.168 388.694 L 182.168 209.167 C 182.153 206.017 180.353 203.185 177.601 201.98 C 174.849 200.775 171.682 201.432 169.565 203.648 C 158.83 214.997 158.734 301.491 159.849 357.472 L 130.205 357.472 C 128.057 289.322 133.151 183.791 156.438 169.023 C 170.916 159.843 212.203 136.13 220.952 131.111 L 291.033 131.111 Z  M 292.916 123.306 L 219.084 123.306 C 219.084 123.306 169.122 151.874 152.635 162.333 C 115.72 185.75 123.103 365.278 123.103 365.278 L 167.402 365.278 C 167.402 365.278 164.079 220.485 174.785 209.167 L 174.785 396.5 L 337.215 396.5 L 337.215 209.167 C 347.921 220.485 344.598 365.278 344.598 365.278 L 388.897 365.278 C 388.897 365.278 396.28 185.75 359.365 162.333 C 345.875 153.778 292.916 123.306 292.916 123.306 Z " fill="rgb(116,150,196)"/><rect x="126.794" y="361.375" width="36.916" height="23.417" transform="matrix(1,0,0,1,0,0)" fill="rgb(194,232,255)"/><path d=" M 160.019 365.278 L 160.019 380.889 L 130.486 380.889 L 130.486 365.278 L 160.019 365.278 Z  M 167.402 357.472 L 123.103 357.472 L 123.103 388.694 L 167.402 388.694 L 167.402 357.472 Z " fill="rgb(116,150,196)"/><rect x="348.29" y="361.375" width="36.916" height="23.417" transform="matrix(1,0,0,1,0,0)" fill="rgb(194,232,255)"/><path d=" M 381.514 365.278 L 381.514 380.889 L 351.981 380.889 L 351.981 365.278 L 381.514 365.278 Z  M 388.897 357.472 L 344.598 357.472 L 344.598 388.694 L 388.897 388.694 L 388.897 357.472 Z " fill="rgb(116,150,196)"/><path d=" M 201.881 139.205 L 219.357 120.73 L 250.47 147.05 L 226.77 172.106 L 201.881 139.205 Z  M 261.53 147.05 L 292.643 120.73 L 303.193 131.884 L 284.521 171.357 L 261.53 147.05 Z " fill="rgb(194,232,255)"/><path d=" M 292.37 125.959 L 298.697 132.649 L 283.51 164.761 L 267.053 147.362 L 292.37 125.959 Z  M 219.63 125.959 L 244.947 147.37 L 227.08 166.26 L 206.828 139.494 L 219.63 125.959 Z  M 292.916 115.5 L 256 146.722 L 285.533 177.944 L 307.682 131.111 L 292.916 115.5 Z  M 219.084 115.5 L 196.935 138.917 L 226.467 177.944 L 256 146.722 L 219.084 115.5 Z " fill="rgb(116,150,196)"/><ellipse vector-effect="non-scaling-stroke" cx="256" cy="177.94444444444434" rx="7.383182844243777" ry="7.805555555555543" fill="rgb(116,150,196)"/><ellipse vector-effect="non-scaling-stroke" cx="256" cy="224.77777777777794" rx="7.383182844243777" ry="7.805555555555543" fill="rgb(116,150,196)"/><ellipse vector-effect="non-scaling-stroke" cx="256" cy="271.6111111111112" rx="7.383182844243777" ry="7.805555555555543" fill="rgb(116,150,196)"/><ellipse vector-effect="non-scaling-stroke" cx="256" cy="318.4444444444444" rx="7.383182844243777" ry="7.805555555555543" fill="rgb(116,150,196)"/><ellipse vector-effect="non-scaling-stroke" cx="256" cy="365.277777777778" rx="7.383182844243777" ry="7.805555555555543" fill="rgb(116,150,196)"/><path d=" M 292.916 115.5 L 256 146.722 L 219.084 115.5 L 292.916 115.5 Z " fill="rgb(116,150,196)"/></g></g></svg>