<?xml version="1.0" standalone="no"?><!-- Generator: Gravit.io --><svg xmlns="http://www.w3.org/2000/svg" xmlns:xlink="http://www.w3.org/1999/xlink" style="isolation:isolate" viewBox="0 0 512 512" width="512" height="512"><defs><clipPath id="_clipPath_G5pqyRSeFNwLT53NKxZFhpy1hSNMLjZM"><rect width="512" height="512"/></clipPath></defs><g clip-path="url(#_clipPath_G5pqyRSeFNwLT53NKxZFhpy1hSNMLjZM)"><path d=" M 255.933 185.788 C 244.143 185.788 236.284 179.717 229.64 165.438 C 227.02 159.704 224.4 153.183 221.874 146.775 C 218.786 139.017 215.605 131.035 212.236 124.176 C 199.792 98.992 182.295 85.95 168.259 77.518 L 343.607 77.518 C 330.601 85.388 316.004 96.519 299.442 125.75 C 295.232 133.171 292.144 140.928 288.963 149.136 C 286.904 154.42 284.752 159.929 282.226 165.438 C 275.489 180.166 268.19 185.9 255.933 185.788 L 255.933 185.788 Z  M 389.549 304.064 L 385.525 333.633 C 396.379 389.847 386.648 431.334 385.432 436.168 L 385.432 454.157 L 301.314 454.157 L 301.314 436.281 L 255.933 224.576 L 210.552 436.281 L 210.552 454.157 L 126.434 454.157 L 126.434 436.168 C 125.218 431.221 115.58 389.735 126.434 333.633 L 122.411 303.726 L 121.381 271.684 L 121.381 173.758 L 132.516 157.793 L 157.405 74.483 L 158.341 57.843 L 353.619 57.843 L 354.554 74.483 L 379.537 157.793 L 390.672 173.758 L 390.672 271.571 L 389.549 304.064 L 389.549 304.064 Z  M 131.674 177.58 L 131.861 177.58 C 132.703 177.58 133.452 176.906 133.545 175.894 C 133.639 174.77 133.077 173.758 132.142 173.645 C 130.645 173.421 129.241 173.196 127.931 173.083 L 125.966 175.782 L 125.966 176.906 C 127.651 177.018 129.522 177.243 131.674 177.58 Z  M 131.206 307.324 C 133.92 307.886 136.633 308.336 139.534 308.786 L 139.721 308.786 C 140.651 308.848 141.447 307.992 141.499 306.874 C 141.55 305.757 140.838 304.8 139.908 304.738 C 137.195 304.401 134.481 303.951 131.861 303.389 C 130.925 303.164 130.083 303.839 129.896 304.963 C 129.709 306.087 130.27 307.099 131.206 307.324 Z  M 183.137 428.523 L 183.324 428.523 C 184.166 428.523 184.914 427.736 185.008 426.724 C 185.382 423.464 185.663 420.203 185.944 416.83 C 186.037 415.819 185.382 414.807 184.447 414.694 C 183.605 414.582 182.762 415.369 182.669 416.493 L 181.827 426.387 C 181.733 427.511 182.388 428.523 183.137 428.523 Z  M 182.107 349.598 C 182.482 350.16 182.95 350.385 183.417 350.385 C 183.792 350.385 184.166 350.272 184.447 349.935 C 185.195 349.26 185.289 348.024 184.727 347.124 C 183.137 344.651 180.797 342.402 177.897 340.378 C 177.148 339.816 176.119 340.153 175.651 341.053 C 175.183 341.952 175.464 343.189 176.213 343.751 C 178.739 345.55 180.704 347.574 182.107 349.598 Z  M 186.786 407.049 L 187.628 397.155 C 187.722 396.143 187.067 395.131 186.131 395.019 C 185.289 394.907 184.447 395.694 184.353 396.818 L 183.511 406.712 C 183.417 407.724 184.072 408.735 185.008 408.848 L 185.195 408.848 C 186.037 408.848 186.692 408.061 186.786 407.049 L 186.786 407.049 Z  M 188.377 387.374 L 188.377 387.037 C 188.657 384.113 188.938 380.853 189.125 377.48 C 189.219 376.356 188.564 375.456 187.628 375.344 C 186.692 375.231 185.944 376.018 185.85 377.143 C 185.663 380.403 185.382 383.664 185.102 386.587 L 185.102 386.924 C 185.008 387.936 185.663 388.948 186.599 389.06 L 186.786 389.06 C 187.628 389.06 188.377 388.273 188.377 387.374 L 188.377 387.374 Z  M 189.406 367.137 C 189.312 363.314 188.938 359.941 188.377 356.905 C 188.189 355.894 187.347 355.219 186.412 355.444 C 185.569 355.669 185.008 356.681 185.195 357.805 C 185.757 360.503 186.037 363.651 186.131 367.249 C 186.131 368.261 186.879 369.16 187.815 369.16 C 188.751 369.16 189.406 368.261 189.406 367.137 L 189.406 367.137 Z  M 190.996 254.707 C 191.184 253.583 190.622 252.571 189.686 252.346 C 188.751 252.121 187.909 252.796 187.722 253.92 C 187.16 257.068 186.599 260.329 186.037 263.701 C 185.85 264.826 186.412 265.838 187.347 266.062 L 187.722 266.062 C 188.47 266.062 189.125 265.388 189.312 264.488 C 189.874 261.116 190.435 257.855 190.996 254.707 Z  M 192.494 244.926 C 192.961 241.44 193.429 238.067 193.803 235.032 C 193.897 233.908 193.336 232.896 192.4 232.783 C 191.464 232.671 190.622 233.345 190.529 234.47 C 190.154 237.505 189.686 240.766 189.219 244.251 C 189.031 245.263 189.593 246.275 190.529 246.5 L 190.809 246.5 C 191.651 246.5 192.306 245.825 192.494 244.926 L 192.494 244.926 Z  M 194.833 225.026 C 195.113 221.203 195.301 217.83 195.301 215.019 L 195.301 214.907 C 195.301 213.783 194.552 212.883 193.616 212.883 C 192.681 212.883 191.932 213.783 191.932 214.907 L 191.932 215.019 C 191.932 217.718 191.745 220.978 191.464 224.688 C 191.371 225.7 192.026 226.712 192.961 226.825 L 193.149 226.825 C 193.991 226.825 194.739 226.038 194.833 225.026 L 194.833 225.026 Z  M 193.523 204.114 C 192.306 201.753 190.154 199.279 187.254 196.693 C 186.505 196.019 185.476 196.244 184.914 197.143 C 184.353 198.043 184.54 199.279 185.195 199.954 C 187.815 202.202 189.686 204.451 190.716 206.362 C 191.09 206.925 191.558 207.262 192.119 207.262 C 192.494 207.262 192.774 207.149 193.055 206.925 C 193.803 206.25 193.991 205.013 193.523 204.114 L 193.523 204.114 Z  M 184.259 273.595 C 183.605 276.968 182.95 280.229 182.388 283.264 C 182.201 284.276 182.669 285.4 183.605 285.625 L 183.979 285.625 C 184.727 285.625 185.382 284.951 185.569 284.051 C 186.131 280.903 186.786 277.643 187.441 274.27 C 187.722 273.258 187.16 272.134 186.224 271.909 C 185.382 271.684 184.447 272.358 184.259 273.595 L 184.259 273.595 Z  M 180.517 292.821 C 180.049 294.844 179.675 296.643 179.3 298.217 C 179.02 299.679 178.645 300.916 178.178 301.815 C 177.71 302.714 177.99 303.951 178.833 304.513 C 179.113 304.626 179.394 304.738 179.675 304.738 C 180.236 304.738 180.797 304.401 181.078 303.726 C 181.64 302.49 182.107 301.028 182.482 299.229 C 182.856 297.655 183.23 295.856 183.698 293.72 C 183.885 292.596 183.324 291.472 182.482 291.247 C 181.546 291.022 180.704 291.696 180.517 292.821 Z  M 179.955 191.297 C 177.616 189.723 175.09 188.149 172.47 186.687 C 171.721 186.238 170.692 186.687 170.318 187.699 C 169.943 188.599 170.318 189.835 171.16 190.285 C 173.78 191.747 176.213 193.208 178.365 194.782 C 178.645 194.895 178.926 195.007 179.207 195.007 C 179.768 195.007 180.33 194.67 180.61 193.995 C 181.078 193.096 180.797 191.859 179.955 191.297 Z  M 166.107 305.862 L 164.517 305.862 C 163.581 305.862 162.832 306.762 162.832 307.886 C 162.832 309.01 163.581 309.91 164.517 309.91 L 166.107 309.91 C 168.914 309.91 171.066 309.798 173.031 309.46 C 173.873 309.348 174.528 308.336 174.435 307.212 C 174.341 306.2 173.499 305.413 172.563 305.525 C 170.879 305.75 168.727 305.862 166.107 305.862 L 166.107 305.862 Z  M 170.131 336.106 C 167.511 334.982 164.704 334.082 161.897 333.408 C 160.961 333.183 160.119 333.857 159.932 334.982 C 159.745 336.106 160.306 337.118 161.242 337.455 C 163.862 338.017 166.575 338.917 169.008 339.929 C 169.195 340.041 169.382 340.041 169.569 340.041 C 170.318 340.041 170.879 339.479 171.16 338.692 C 171.441 337.568 170.973 336.443 170.131 336.106 Z  M 164.797 182.64 C 162.739 181.74 160.774 180.953 159.183 180.391 C 158.435 180.166 157.592 179.829 156.75 179.604 C 155.815 179.379 154.879 180.054 154.692 181.066 C 154.505 182.19 155.066 183.202 155.908 183.539 C 156.75 183.764 157.499 184.101 158.247 184.214 C 159.745 184.663 161.616 185.451 163.581 186.35 C 163.768 186.462 163.955 186.462 164.142 186.462 C 164.891 186.462 165.452 186.013 165.733 185.226 C 166.107 184.214 165.639 182.977 164.797 182.64 Z  M 148.048 305.525 C 147.113 305.525 146.271 306.312 146.271 307.436 C 146.271 308.561 146.926 309.573 147.861 309.573 C 150.388 309.685 153.101 309.798 156.189 309.798 C 157.125 309.798 157.873 309.01 157.873 307.886 C 157.967 306.762 157.218 305.862 156.282 305.862 C 153.195 305.75 150.575 305.638 148.048 305.525 L 148.048 305.525 Z  M 153.382 332.283 C 150.949 332.171 148.423 332.283 144.961 332.508 C 144.025 332.621 143.37 333.52 143.37 334.532 C 143.464 335.656 144.212 336.443 145.054 336.443 L 145.148 336.443 C 148.516 336.218 150.949 336.106 153.288 336.218 C 154.13 336.218 154.973 335.431 154.973 334.307 C 155.066 333.183 154.318 332.283 153.382 332.283 L 153.382 332.283 Z  M 148.61 177.243 C 145.896 176.456 143.089 175.782 140.469 175.219 C 139.534 174.995 138.692 175.669 138.504 176.793 C 138.317 177.918 138.879 178.93 139.814 179.154 C 142.434 179.829 145.148 180.504 147.861 181.178 L 148.236 181.178 C 148.984 181.178 149.639 180.504 149.826 179.604 C 150.107 178.592 149.546 177.468 148.61 177.243 Z  M 130.645 337.455 C 132.89 337.455 135.042 337.23 137.007 337.118 C 137.849 337.005 138.598 336.106 138.504 334.982 C 138.411 333.97 137.662 333.07 136.727 333.183 L 131.206 333.52 L 131.206 333.857 L 131.113 334.42 C 130.925 335.431 130.738 336.556 130.645 337.455 Z  M 206.435 433.92 C 195.207 433.582 181.733 433.807 168.634 433.92 C 155.534 434.145 142.06 434.257 130.925 433.92 C 131.113 434.594 131.206 435.044 131.206 435.044 L 131.3 435.494 L 131.3 437.967 C 135.885 438.192 140.937 438.192 146.177 438.192 C 153.475 438.192 161.148 438.08 168.634 437.967 C 172.657 437.967 176.68 437.855 180.704 437.855 C 180.33 440.778 180.049 443.589 179.675 446.174 C 179.581 447.186 180.142 448.311 181.078 448.423 L 181.359 448.423 C 182.107 448.423 182.856 447.748 182.95 446.737 C 183.23 443.926 183.605 440.89 183.979 437.742 C 191.651 437.63 199.23 437.63 205.874 437.855 L 205.874 435.606 L 205.967 435.269 L 206.435 433.92 L 206.435 433.92 Z  M 316.472 168.923 C 328.449 163.414 342.952 163.077 356.987 162.852 C 363.724 162.74 370.18 162.627 376.356 161.953 L 375.514 160.716 L 374.859 158.692 C 369.151 159.254 363.163 159.367 356.893 159.479 C 342.577 159.817 327.887 160.041 315.443 165.775 C 310.109 168.136 304.963 170.947 299.91 173.645 C 290.273 178.817 281.103 183.764 271.465 186.462 C 276.986 182.865 281.477 176.793 285.594 167.799 C 288.121 162.178 290.366 156.669 292.425 151.272 C 295.606 143.177 298.6 135.532 302.624 128.449 C 320.963 96.069 336.776 86.513 350.812 78.53 L 349.969 75.719 L 349.782 72.684 L 162.271 72.684 L 162.084 75.719 L 161.99 76.057 L 161.242 78.418 C 176.119 86.962 195.488 98.992 209.055 126.537 C 212.424 133.283 215.605 141.153 218.599 148.798 C 221.219 155.207 223.839 161.84 226.552 167.687 C 230.857 177.018 235.816 183.202 241.898 186.8 C 226.085 183.427 211.02 174.882 196.891 165.775 C 184.447 157.68 169.008 157.456 154.037 157.231 L 138.037 156.893 L 137.101 160.154 C 142.809 160.604 148.61 160.716 154.224 160.828 C 169.476 161.053 183.885 161.278 195.768 168.923 C 214.389 180.841 234.599 191.971 256.214 191.971 L 257.243 191.971 C 272.869 191.971 287.278 184.214 301.127 176.793 C 306.086 174.095 311.326 171.284 316.472 168.923 L 316.472 168.923 Z  M 368.122 307.212 C 368.028 306.087 367.28 305.3 366.344 305.3 L 358.11 305.638 C 357.268 305.638 356.519 306.537 356.519 307.774 C 356.519 308.786 357.268 309.685 358.203 309.685 C 361.198 309.685 364.005 309.573 366.531 309.348 C 367.467 309.235 368.215 308.336 368.122 307.212 Z  M 366.437 331.834 C 363.256 331.834 360.543 331.946 358.11 332.171 C 357.268 332.283 356.519 333.183 356.613 334.307 C 356.706 335.319 357.455 336.106 358.297 336.106 L 358.391 336.106 C 360.73 335.994 363.35 335.769 366.531 335.769 C 367.373 335.769 368.122 334.869 368.122 333.745 C 368.122 332.733 367.373 331.834 366.437 331.834 Z  M 332.753 306.537 C 333.127 306.874 333.501 306.987 333.876 306.987 C 334.343 306.987 334.718 306.762 335.092 306.312 C 335.653 305.525 335.56 304.176 334.905 303.501 C 333.782 302.377 333.033 300.691 332.472 297.992 C 332.379 297.318 332.191 296.531 332.004 295.631 C 331.817 294.507 330.881 293.945 330.039 294.17 C 329.104 294.395 328.636 295.519 328.823 296.531 C 329.01 297.43 329.104 298.217 329.384 299.117 C 330.133 302.49 331.162 304.851 332.753 306.537 Z  M 329.291 360.278 C 328.355 360.053 327.513 360.728 327.232 361.74 C 326.577 365 326.016 368.373 325.642 371.746 C 325.454 372.87 326.109 373.882 327.045 373.995 L 327.232 373.995 C 328.074 373.995 328.823 373.32 328.916 372.308 C 329.197 369.16 329.759 366.012 330.414 362.864 C 330.694 361.74 330.133 360.616 329.291 360.278 L 329.291 360.278 Z  M 330.226 285.962 C 329.665 282.814 329.197 279.554 328.636 276.181 C 328.449 275.169 327.607 274.382 326.671 274.607 C 325.829 274.832 325.174 275.844 325.361 276.968 C 325.829 280.341 326.39 283.714 326.952 286.749 C 327.045 287.649 327.794 288.323 328.542 288.323 L 328.916 288.323 C 329.852 288.099 330.414 286.974 330.226 285.962 L 330.226 285.962 Z  M 327.419 198.155 C 326.764 197.368 325.735 197.256 325.08 198.043 C 323.5 199.692 322.143 201.626 321.057 203.777 C 320.589 204.676 320.308 205.8 320.027 207.149 C 319.84 208.161 320.308 209.286 321.244 209.51 L 321.618 209.51 C 322.367 209.51 323.022 208.836 323.209 207.936 C 323.396 206.7 323.677 206.025 323.864 205.688 C 324.612 204.114 325.829 202.54 327.326 200.853 C 327.981 200.066 328.074 198.83 327.419 198.155 L 327.419 198.155 Z  M 319.279 217.38 C 319.279 220.304 319.466 223.789 319.653 227.499 C 319.747 228.511 320.495 229.298 321.337 229.298 L 321.431 229.298 C 322.273 229.186 323.022 228.286 322.928 227.162 C 322.741 223.564 322.647 220.191 322.647 217.38 C 322.647 216.256 321.899 215.357 320.963 215.357 C 320.027 215.357 319.279 216.256 319.279 217.38 L 319.279 217.38 Z  M 320.402 237.505 C 320.682 240.541 321.057 243.914 321.431 247.399 C 321.618 248.411 322.273 249.086 323.115 249.086 L 323.302 249.086 C 324.144 248.973 324.799 247.961 324.706 246.837 C 324.238 243.352 323.957 240.091 323.677 236.943 C 323.583 235.819 322.835 235.032 321.899 235.144 C 320.963 235.369 320.308 236.269 320.402 237.505 Z  M 322.647 257.068 C 323.022 260.329 323.49 263.701 323.957 266.962 C 324.051 267.974 324.799 268.648 325.548 268.648 L 325.829 268.648 C 326.671 268.536 327.326 267.524 327.139 266.4 C 326.671 263.139 326.203 259.879 325.829 256.618 C 325.735 255.494 324.893 254.819 323.957 254.932 C 323.022 255.157 322.46 256.169 322.647 257.068 Z  M 325.174 382.202 L 325.454 392.096 C 325.548 393.22 326.297 394.007 327.139 394.007 L 327.232 394.007 C 328.168 394.007 328.823 393.108 328.823 391.983 L 328.542 382.09 L 328.542 381.977 L 326.858 381.977 L 325.174 382.202 L 325.174 382.202 Z  M 326.016 401.99 L 326.577 411.996 C 326.671 413.008 327.419 413.795 328.261 413.795 L 328.355 413.795 C 329.197 413.682 329.946 412.783 329.852 411.659 L 329.291 401.765 C 329.197 400.641 328.449 399.854 327.513 399.854 C 326.577 399.966 325.829 400.865 326.016 401.99 L 326.016 401.99 Z  M 326.952 421.89 C 327.232 425.15 327.419 428.523 327.7 431.783 C 327.794 432.795 328.542 433.582 329.384 433.582 L 329.571 433.582 C 330.507 433.47 331.162 432.57 331.069 431.446 C 330.788 428.186 330.507 424.925 330.32 421.552 C 330.226 420.428 329.478 419.641 328.542 419.754 C 327.7 419.866 326.952 420.765 326.952 421.89 L 326.952 421.89 Z  M 331.724 354.882 C 332.379 354.882 332.94 354.432 333.221 353.645 C 333.876 351.846 334.624 350.16 335.373 348.586 C 335.841 347.461 336.402 346.45 337.057 345.55 C 337.618 344.651 337.525 343.414 336.776 342.739 C 336.028 342.065 334.998 342.177 334.437 343.077 C 333.688 344.201 333.033 345.438 332.379 346.674 C 331.536 348.361 330.788 350.272 330.039 352.183 C 329.665 353.195 330.039 354.32 330.881 354.769 C 331.162 354.882 331.349 354.882 331.724 354.882 Z  M 340.987 190.51 C 341.829 189.948 342.11 188.823 341.735 187.812 C 341.268 186.8 340.332 186.462 339.49 186.912 C 336.87 188.486 334.343 190.173 332.098 191.859 C 331.256 192.421 331.069 193.658 331.536 194.557 C 331.817 195.119 332.379 195.457 332.94 195.457 C 333.221 195.457 333.501 195.344 333.782 195.119 C 335.934 193.545 338.273 191.859 340.987 190.51 Z  M 339.958 307.661 C 339.958 308.673 340.613 309.685 341.548 309.685 C 342.671 309.798 343.887 309.798 345.572 309.798 L 349.876 309.798 C 350.812 309.798 351.56 308.898 351.56 307.774 C 351.56 306.649 350.812 305.75 349.876 305.75 L 345.665 305.75 C 344.075 305.75 342.765 305.75 341.735 305.638 C 340.8 305.525 339.958 306.425 339.958 307.661 L 339.958 307.661 Z  M 340.706 339.142 C 340.987 339.816 341.548 340.266 342.203 340.266 C 342.484 340.266 342.765 340.153 342.952 340.041 C 345.01 338.917 347.349 338.017 350.437 337.343 C 351.279 337.118 351.934 336.106 351.747 334.982 C 351.56 333.97 350.718 333.183 349.782 333.408 C 346.414 334.195 343.794 335.094 341.455 336.443 C 340.613 336.893 340.238 338.13 340.706 339.142 Z  M 353.619 184.439 C 354.367 184.214 355.116 183.876 355.958 183.652 C 356.893 183.314 357.455 182.19 357.174 181.178 C 356.893 180.054 356.051 179.492 355.116 179.717 C 354.274 179.941 353.431 180.279 352.683 180.504 C 350.999 181.066 349.127 181.853 347.069 182.752 C 346.227 183.202 345.852 184.326 346.133 185.338 C 346.414 186.125 347.069 186.575 347.724 186.575 C 347.911 186.575 348.098 186.575 348.285 186.462 C 350.25 185.563 352.121 184.888 353.619 184.439 Z  M 372.052 179.154 C 372.894 178.93 373.549 177.918 373.362 176.793 C 373.174 175.782 372.332 174.995 371.397 175.219 C 368.777 175.782 366.063 176.456 363.256 177.243 C 362.414 177.468 361.853 178.48 362.04 179.604 C 362.227 180.504 362.882 181.178 363.63 181.178 L 364.005 181.178 C 366.812 180.504 369.525 179.829 372.052 179.154 L 372.052 179.154 Z  M 332.753 448.535 C 332.472 446.287 332.285 443.813 332.004 441.34 C 331.817 440.216 331.069 439.429 330.133 439.541 C 329.197 439.766 328.542 440.665 328.636 441.79 C 328.916 444.151 329.104 446.399 329.291 448.535 L 332.753 448.535 L 332.753 448.535 Z  M 381.034 433.92 C 369.9 434.257 356.426 434.145 343.326 433.92 C 330.32 433.807 316.753 433.582 305.618 433.92 L 305.992 435.606 L 305.992 437.855 C 317.033 437.517 330.414 437.63 343.326 437.855 C 350.999 437.967 358.858 438.08 366.344 438.08 C 371.397 438.08 376.262 437.967 380.753 437.855 L 380.753 435.381 L 380.847 434.932 C 380.847 434.932 380.941 434.482 381.034 433.92 L 381.034 433.92 Z  M 381.128 335.769 L 380.847 334.42 L 380.753 333.857 L 381.034 331.721 L 374.859 331.721 C 373.923 331.721 373.174 332.621 373.174 333.745 C 373.174 334.869 373.923 335.769 374.859 335.769 L 381.128 335.769 L 381.128 335.769 Z  M 384.496 304.401 C 384.309 303.277 383.467 302.602 382.531 302.827 C 379.911 303.501 377.198 303.951 374.484 304.401 C 373.549 304.513 372.894 305.525 372.987 306.537 C 373.174 307.549 373.829 308.336 374.672 308.336 L 374.859 308.336 C 377.759 307.999 380.566 307.436 383.186 306.762 C 384.122 306.537 384.683 305.525 384.496 304.401 L 384.496 304.401 Z  M 385.9 175.782 L 383.935 173.083 C 382.625 173.196 381.221 173.421 379.724 173.645 C 378.789 173.758 378.227 174.77 378.321 175.894 C 378.508 176.906 379.163 177.58 380.005 177.58 L 380.192 177.58 C 382.344 177.243 384.215 177.018 385.9 176.906 L 385.9 175.782 Z " fill="rgb(77,78,78)"/></g></svg>