<?xml version="1.0" standalone="no"?><!-- Generator: Gravit.io --><svg xmlns="http://www.w3.org/2000/svg" xmlns:xlink="http://www.w3.org/1999/xlink" style="isolation:isolate" viewBox="0 0 512 512" width="512" height="512"><defs><clipPath id="_clipPath_MaRWMWkvFVHlrGyvriPFTTyThl1V29Pi"><rect width="512" height="512"/></clipPath></defs><g clip-path="url(#_clipPath_MaRWMWkvFVHlrGyvriPFTTyThl1V29Pi)"><g><path d=" M 87 366.491 L 425 366.491 C 425 376.662 415.542 384.906 403.875 384.906 L 108.125 384.906 C 96.458 384.906 87 376.662 87 366.491 Z " fill="rgb(120,139,156)"/><path d=" M 102.633 357.283 L 136.432 283.623 L 375.567 283.623 L 409.368 357.283 L 102.633 357.283 L 102.633 357.283 Z " fill="rgb(197,212,222)"/><path d=" M 368.385 292.83 L 393.735 348.076 L 119.11 348.076 L 144.46 292.83 L 368.385 292.83 Z  M 382.75 274.415 L 129.25 274.415 L 87 366.491 L 425 366.491 L 382.75 274.415 Z " fill="rgb(163,183,204)"/><path d=" M 139.812 265.208 L 139.812 145.509 C 139.812 140.424 144.541 136.301 150.375 136.301 L 361.625 136.301 C 367.459 136.301 372.188 140.424 372.188 145.509 L 372.188 265.208 L 139.812 265.208 Z " fill="rgb(219,242,255)"/><path d=" M 361.625 145.509 L 361.625 256 L 150.375 256 L 150.375 145.509 L 361.625 145.509 Z  M 361.625 127.094 L 150.375 127.094 C 138.708 127.094 129.25 135.339 129.25 145.509 L 129.25 274.415 L 382.75 274.415 L 382.75 145.509 C 382.75 135.339 373.292 127.094 361.625 127.094 Z " fill="rgb(102,121,143)"/><path d=" M 290.434 311.246 L 221.144 311.614 L 213.75 348.444 L 298.25 348.444 L 290.434 311.246 L 290.434 311.246 Z " fill="rgb(120,139,156)"/><path d=" M 143.615 292.83 L 368.174 292.83 L 385.496 329.661 L 126.504 330.029 L 143.615 292.83 L 143.615 292.83 Z " fill="rgb(84,110,122)"/></g></g></svg>