<?xml version="1.0" standalone="no"?><!-- Generator: Gravit.io --><svg xmlns="http://www.w3.org/2000/svg" xmlns:xlink="http://www.w3.org/1999/xlink" style="isolation:isolate" viewBox="0 0 512 512" width="512" height="512"><defs><clipPath id="_clipPath_FiphPJBl8ySQdJnFkoFjpQ64BMXB5RCY"><rect width="512" height="512"/></clipPath></defs><g clip-path="url(#_clipPath_FiphPJBl8ySQdJnFkoFjpQ64BMXB5RCY)"><g><path d=" M 106.5 353.8 L 106.5 125.6 C 106.5 107.67 121.45 93 139.722 93 L 256 93 C 274.272 93 289.222 107.67 289.222 125.6 L 289.222 353.8 C 289.222 371.73 274.272 386.4 256 386.4 L 139.722 386.4 C 121.45 386.4 106.5 371.73 106.5 353.8 Z " fill="rgb(55,71,79)"/><path d=" M 256 117.45 L 139.722 117.45 C 134.739 117.45 131.417 120.71 131.417 125.6 L 131.417 329.35 C 131.417 334.24 134.739 337.5 139.722 337.5 L 256 337.5 C 260.983 337.5 264.306 334.24 264.306 329.35 L 264.306 125.6 C 264.306 120.71 260.983 117.45 256 117.45 Z " fill="rgb(187,222,251)"/><rect x="172.944" y="353.8" width="49.833" height="16.3" transform="matrix(1,0,0,1,0,0)" fill="rgb(120,144,156)"/><path d=" M 222.778 386.4 L 222.778 158.2 C 222.778 140.27 237.728 125.6 256 125.6 L 372.278 125.6 C 390.55 125.6 405.5 140.27 405.5 158.2 L 405.5 386.4 C 405.5 404.33 390.55 419 372.278 419 L 256 419 C 237.728 419 222.778 404.33 222.778 386.4 Z " fill="rgb(227,137,57)"/><path d=" M 372.278 150.05 L 256 150.05 C 251.017 150.05 247.694 153.31 247.694 158.2 L 247.694 361.95 C 247.694 366.84 251.017 370.1 256 370.1 L 372.278 370.1 C 377.261 370.1 380.583 366.84 380.583 361.95 L 380.583 158.2 C 380.583 153.31 377.261 150.05 372.278 150.05 Z " fill="rgb(255,243,224)"/><ellipse vector-effect="non-scaling-stroke" cx="314.13888888888886" cy="394.54999999999995" rx="12.458333333333314" ry="12.225000000000023" fill="rgb(166,100,42)"/></g></g></svg>