<?xml version="1.0" standalone="no"?><!-- Generator: Gravit.io --><svg xmlns="http://www.w3.org/2000/svg" xmlns:xlink="http://www.w3.org/1999/xlink" style="isolation:isolate" viewBox="0 0 512 512" width="512" height="512"><defs><clipPath id="_clipPath_n6wsl7tQqR05sw0HywRg3CBBwspM5hRC"><rect width="512" height="512"/></clipPath></defs><g clip-path="url(#_clipPath_n6wsl7tQqR05sw0HywRg3CBBwspM5hRC)"><g><path d=" M 154.1 376.599 C 155.506 376.599 156.695 377.828 156.695 379.281 C 156.695 380.734 155.506 381.963 154.1 381.963 C 152.695 381.963 151.506 380.734 151.506 379.281 C 151.506 377.828 152.695 376.599 154.1 376.599 Z  M 155.398 354.804 L 155.398 196.651 C 155.398 190.392 158.425 184.803 163.074 181.45 C 163.831 168.373 174.318 157.979 187.184 157.979 L 213.889 157.979 L 213.889 138.307 C 213.889 127.466 205.348 118.636 194.86 118.636 L 87.933 118.636 C 87.717 119.53 87.609 120.424 87.609 121.43 L 87.609 378.499 C 91.717 383.081 97.556 385.875 104.043 385.875 L 148.154 385.875 C 146.386 384.176 145.402 381.777 145.451 379.281 C 145.451 374.363 149.343 370.339 154.1 370.339 C 158.858 370.339 162.75 374.363 162.75 379.281 C 162.75 381.852 161.669 384.199 160.047 385.875 L 203.618 385.875 C 207.186 385.875 210.645 384.981 213.673 383.416 C 213.889 382.075 213.997 380.734 213.997 379.281 L 213.997 373.469 L 173.561 373.469 C 163.507 373.469 155.398 365.086 155.398 354.804 L 155.398 354.804 Z  M 104.151 172.062 L 104.151 134.396 C 103.091 136.545 100.994 137.938 98.662 138.042 C 96.331 138.147 94.125 136.947 92.889 134.901 C 91.653 132.854 91.577 130.279 92.69 128.159 C 94.382 124.939 98.262 123.723 101.398 125.43 C 104.534 127.136 105.761 131.132 104.151 134.396 L 201.239 134.396 L 201.239 153.732 L 195.077 153.732 L 195.077 140.766 L 110.313 140.766 L 110.313 165.803 L 159.29 165.803 L 159.29 172.173 L 104.151 172.062 L 104.151 172.062 Z  M 299.733 181.786 C 300.598 181.786 301.247 181.115 301.247 180.221 C 301.247 179.997 301.247 179.885 301.139 179.662 L 298.327 179.662 C 298.219 179.885 298.219 179.997 298.219 180.221 C 298.219 181.115 298.868 181.786 299.733 181.786 L 299.733 181.786 Z  M 190.752 201.457 L 405.903 201.457 L 405.903 324.738 L 408.714 324.738 L 408.714 196.539 L 190.752 196.539 L 190.752 201.457 L 190.752 201.457 Z  M 175.291 341.056 C 175.291 347.874 180.589 353.351 187.184 353.351 L 412.174 353.351 C 414.336 353.351 416.282 352.792 418.012 351.786 L 418.012 198.327 C 418.012 188.045 409.903 179.662 399.957 179.662 L 307.301 179.662 L 307.301 180.221 C 307.301 184.58 303.841 188.156 299.625 188.156 C 295.408 188.156 291.949 184.58 291.949 180.221 L 291.949 179.662 L 175.724 179.662 C 175.399 180.668 175.291 181.786 175.291 182.903 L 175.291 341.056 L 175.291 341.056 Z  M 299.733 351.562 C 294.976 351.562 291.084 347.539 291.084 342.621 C 291.084 337.703 294.976 333.679 299.733 333.679 C 304.49 333.679 308.382 337.703 308.382 342.621 C 308.382 347.539 304.49 351.562 299.733 351.562 Z  M 184.589 190.168 L 414.877 190.168 L 414.877 331.109 L 184.589 331.109 L 184.589 190.168 Z  M 299.733 339.938 C 298.327 339.938 297.138 341.168 297.138 342.621 C 297.138 344.074 298.327 345.303 299.733 345.303 C 301.139 345.303 302.328 344.074 302.328 342.621 C 302.328 341.168 301.139 339.938 299.733 339.938 Z " fill="rgb(87,198,209)"/><path d=" M 233.566 280.03 C 282.759 315.126 347.412 313.673 406.011 309.761 L 406.011 201.569 L 207.294 201.569 C 204.591 244.488 220.808 271.201 233.566 280.03 Z " fill="rgb(159,217,221)"/><path d=" M 104.151 134.284 C 105.198 132.205 105.123 129.713 103.953 127.705 C 102.784 125.697 100.688 124.464 98.421 124.448 C 94.853 124.448 91.934 127.466 91.934 131.154 C 91.934 134.843 94.853 137.86 98.421 137.86 C 100.907 137.972 103.07 136.519 104.151 134.284 Z  M 233.566 280.03 C 220.808 271.201 204.591 244.488 207.294 201.569 L 190.752 201.569 L 190.752 324.738 L 406.011 324.738 L 406.011 309.761 C 347.412 313.673 282.759 315.126 233.566 280.03 Z " fill="rgb(194,230,234)"/><path d=" M 163.074 341.056 L 163.074 181.45 C 158.425 184.803 155.398 190.392 155.398 196.651 L 155.398 354.692 C 155.398 364.975 163.507 373.357 173.453 373.357 L 213.889 373.357 L 213.889 365.981 L 187.184 365.981 C 173.886 365.981 163.074 354.804 163.074 341.056 L 163.074 341.056 Z  M 203.51 385.764 L 159.939 385.764 C 156.61 389.045 151.375 389.045 148.046 385.764 L 104.043 385.764 C 97.556 385.764 91.717 382.969 87.609 378.387 L 87.609 386.658 C 87.609 396.046 94.961 403.647 104.043 403.647 L 203.51 403.647 C 207.402 403.647 211.078 402.194 213.889 399.846 L 213.889 379.281 C 213.889 380.734 213.781 382.075 213.564 383.416 C 210.537 384.869 207.077 385.764 203.51 385.764 L 203.51 385.764 Z " fill="rgb(64,137,137)"/><path d=" M 184.589 331.109 L 414.877 331.109 L 414.877 190.168 L 184.589 190.168 L 184.589 331.109 Z  M 190.752 196.539 L 408.714 196.539 L 408.714 324.738 L 190.752 324.738 L 190.752 196.539 L 190.752 196.539 Z  M 232.268 386.77 L 232.268 370.451 L 219.943 370.451 L 219.943 386.77 C 219.943 392.023 217.565 396.829 213.889 399.958 C 211.078 402.305 207.402 403.758 203.51 403.758 L 104.043 403.758 C 94.961 403.758 87.609 396.158 87.609 386.77 L 87.609 121.43 C 87.609 120.424 87.717 119.53 87.933 118.636 C 89.231 112.601 94.312 108.13 100.475 108.13 L 207.077 108.13 C 214.105 108.13 219.943 114.054 219.943 121.43 L 219.943 154.514 L 232.268 154.514 L 232.268 121.43 C 232.268 107.124 221.024 95.5 207.186 95.5 L 100.583 95.5 C 86.744 95.5 75.5 107.124 75.5 121.43 L 75.5 386.77 C 75.5 403.2 88.366 416.5 104.259 416.5 L 203.726 416.5 C 219.403 416.5 232.268 403.088 232.268 386.77 L 232.268 386.77 Z  M 412.282 157.867 L 187.184 157.867 C 174.318 157.867 163.831 168.261 163.074 181.338 L 163.074 340.833 C 163.074 354.58 173.886 365.869 187.292 365.869 L 293.679 365.869 L 293.679 401.747 L 240.053 401.747 L 240.053 414.488 L 359.413 414.488 L 359.413 401.747 L 305.896 401.747 L 305.896 365.869 L 412.282 365.869 C 425.58 365.869 436.5 354.692 436.5 340.833 L 436.5 182.903 C 436.392 169.156 425.58 157.867 412.282 157.867 L 412.282 157.867 Z  M 424.175 341.056 C 424.175 345.639 421.688 349.662 418.12 351.786 C 416.39 352.792 414.444 353.351 412.282 353.351 L 187.184 353.351 C 180.589 353.351 175.291 347.874 175.291 341.056 L 175.291 182.903 C 175.291 181.786 175.399 180.668 175.724 179.662 C 177.129 174.409 181.67 170.609 187.184 170.609 L 412.174 170.609 C 418.769 170.609 424.067 176.085 424.067 182.903 L 424.175 341.056 L 424.175 341.056 Z  M 299.733 188.156 C 303.95 188.156 307.409 184.58 307.409 180.221 L 307.409 179.662 C 307.085 175.526 303.841 172.285 299.841 172.285 C 295.841 172.285 292.489 175.526 292.273 179.662 L 292.273 180.221 C 292.057 184.58 295.516 188.156 299.733 188.156 Z  M 299.733 178.656 C 300.382 178.656 300.922 179.103 301.139 179.662 C 301.247 179.885 301.247 179.997 301.247 180.221 C 301.247 181.115 300.598 181.786 299.733 181.786 C 298.868 181.786 298.219 181.115 298.219 180.221 C 298.219 179.997 298.219 179.885 298.327 179.662 C 298.544 179.103 299.084 178.656 299.733 178.656 L 299.733 178.656 Z  M 299.733 333.568 C 294.976 333.568 291.084 337.591 291.084 342.509 C 291.084 347.427 294.976 351.451 299.733 351.451 C 304.49 351.451 308.382 347.427 308.382 342.509 C 308.382 337.591 304.49 333.568 299.733 333.568 Z  M 299.733 345.192 C 298.327 345.192 297.138 343.962 297.138 342.509 C 297.138 341.056 298.327 339.827 299.733 339.827 C 301.139 339.827 302.328 341.056 302.328 342.509 C 302.328 343.962 301.139 345.192 299.733 345.192 Z  M 145.343 379.281 C 145.343 381.852 146.424 384.199 148.046 385.875 C 151.375 389.157 156.61 389.157 159.939 385.875 C 161.669 384.199 162.642 381.963 162.642 379.281 C 162.642 374.363 158.749 370.339 153.992 370.339 C 149.235 370.339 145.343 374.363 145.343 379.281 Z  M 156.587 379.281 C 156.587 380.734 155.398 381.963 153.992 381.963 C 152.587 381.963 151.398 380.734 151.398 379.281 C 151.398 377.828 152.587 376.599 153.992 376.599 C 155.398 376.599 156.587 377.828 156.587 379.281 Z  M 201.347 153.62 L 201.347 134.284 L 104.151 134.284 L 104.151 172.062 L 159.182 172.062 L 159.182 165.691 L 110.313 165.691 L 110.313 140.655 L 195.185 140.655 L 195.185 153.62 L 201.347 153.62 L 201.347 153.62 Z " fill="rgb(0,0,0)"/></g></g></svg>