<?xml version="1.0" standalone="no"?><!-- Generator: Gravit.io --><svg xmlns="http://www.w3.org/2000/svg" xmlns:xlink="http://www.w3.org/1999/xlink" style="isolation:isolate" viewBox="0 0 512 512" width="512" height="512"><defs><clipPath id="_clipPath_npm0LMFwkLhFny8fpgqgMcM5mkMOkU9M"><rect width="512" height="512"/></clipPath></defs><g clip-path="url(#_clipPath_npm0LMFwkLhFny8fpgqgMcM5mkMOkU9M)"><g><path d=" M 369.701 265.55 C 329.874 262.9 291.666 252.406 282.563 242.949 C 273.331 233.342 250.248 208.278 244.672 187.809 C 239 190.891 215.533 201.623 189.538 201.623 C 163.542 201.623 133.48 191.374 129.933 187.578 C 89.365 230.799 123.082 288.41 123.082 288.41 L 204.191 294.367 C 222.573 297.154 228.143 301.137 237.443 304.918 C 243.343 307.316 251.125 313.114 289.98 319.071 C 339.908 326.676 374.63 317.544 387.206 311.22 C 387.206 311.22 393.464 307.021 399.567 303.117 C 398.043 295.555 393.936 266.206 369.701 265.55 Z " fill="rgb(125,78,1)"/><g><ellipse vector-effect="non-scaling-stroke" cx="234.34741263762746" cy="219.98848684210523" rx="10.115077307969699" ry="10.80345394736841" fill="rgb(9,56,11)"/><ellipse vector-effect="non-scaling-stroke" cx="254.5775672535668" cy="241.59539473684202" rx="10.115077307969699" ry="10.80345394736841" fill="rgb(9,56,11)"/></g><g><line x1="237.719" y1="216.387" x2="251.206" y2="209.185" vector-effect="non-scaling-stroke" stroke-width="7.125" stroke="rgb(255,193,7)" stroke-linejoin="miter" stroke-linecap="round" stroke-miterlimit="4"/><line x1="257.949" y1="237.994" x2="271.436" y2="230.792" vector-effect="non-scaling-stroke" stroke-width="7.125" stroke="rgb(255,193,7)" stroke-linejoin="miter" stroke-linecap="round" stroke-miterlimit="4"/></g><path d=" M 204.002 324.422 L 123.082 324.422 L 123.082 288.41 L 204.002 288.41 L 204.002 324.422 Z " fill="rgb(0,0,0)"/><path d=" M 402.089 310.017 C 402.089 310.017 370.618 324.422 316.671 324.422 C 262.724 324.422 224.232 295.613 204.002 295.613 L 179.847 295.613" fill="none" vector-effect="non-scaling-stroke" stroke-width="7.125" stroke="rgb(0,0,0)" stroke-linejoin="miter" stroke-linecap="butt" stroke-miterlimit="4"/><path d=" M 132.07 189.883 C 155.355 214.738 168.013 249.878 163.542 288.41 L 123.082 288.41 C 123.082 288.41 89.365 230.799 129.825 187.722 C 130.573 188.435 131.356 189.105 132.07 189.883 Z  M 204.002 288.41 C 212.917 288.41 223.625 292.732 237.18 298.184 C 258.232 306.661 284.451 317.22 316.671 317.22 C 363.733 317.22 393.377 305.912 398.549 303.766 C 398.893 303.564 399.237 303.334 399.56 303.117 C 398.043 295.555 393.936 266.206 369.701 265.55 C 351.75 264.355 335.417 261.935 321.904 258.614 C 318.64 288.41 291.666 281.208 291.666 281.208 C 291.666 281.208 253.175 266.803 232.945 259.601 C 208.871 251.03 200.55 275.662 198.162 288.41 L 204.002 288.41 Z " fill="rgb(74,11,0)"/></g></g></svg>