<?xml version="1.0" ?><svg viewBox="0 0 128 128" xmlns="http://www.w3.org/2000/svg"><defs><style>.cls-1{fill:#c3edf5;}.cls-2{fill:#4d91bb;}.cls-3{fill:#2175aa;}.cls-4{fill:#87dbec;}.cls-5{fill:#4dbab4;}.cls-6{fill:#1fa49c;}</style></defs><title/><g data-name="20 In-Store Promotion" id="_20_In-Store_Promotion"><rect class="cls-1" height="57" width="90" x="19" y="49"/><rect class="cls-2" height="42" width="36" x="65" y="64"/><polygon class="cls-3" points="65 64 101 65.09 101 64 65 64"/><polygon class="cls-4" points="19 106 109 103.5 109 106 19 106"/><polygon class="cls-3" points="65 104.72 65 106 101 106 101 103.72 65 104.72"/><rect class="cls-5" height="30" width="30" x="27" y="64"/><polygon class="cls-6" points="27 64 57 66.18 57 64 27 64"/><polygon class="cls-4" points="27 94 57 96.18 57 94 27 94"/><rect class="cls-5" height="6" width="96" x="16" y="106"/><path class="cls-2" d="M100,16H28L16,49a12,12,0,0,0,24,0,12,12,0,0,0,24,0,12,12,0,0,0,24,0,12,12,0,0,0,24,0Z"/></g></svg>